REM DIRINDEX 1\2\6,1\2\7,1\2\8,1\2\9,1\3\10,1\3\11,1\4\12,1\4\13,1\4\14,1\5\15,1\5\16,1\5\17
REM DIRNAME cjc020,folder01,folder02,folder03,folder04,folder05,folder06,folder07,folder08,folder09,folder10,folder11,folder12,folder13,folder14,folder15,folder16
TITLE ""
FILE "1900_3_027 sec05_0432_0446.mp3" MP3
  TRACK 01 AUDIO
    TITLE "0:"
    INDEX 01 00:00:00
  TRACK 02 AUDIO
    TITLE "17:cjc020_6834"
    INDEX 01 00:00:17
  TRACK 03 AUDIO
    TITLE "0:"
    INDEX 01 00:01:36
  TRACK 04 AUDIO
    TITLE "16:cjc020_6835"
    INDEX 01 00:01:42
  TRACK 05 AUDIO
    TITLE "0:"
    INDEX 01 00:02:57
  TRACK 06 AUDIO
    TITLE "17:cjc020_6836"
    INDEX 01 00:03:43
  TRACK 07 AUDIO
    TITLE "0:"
    INDEX 01 00:04:68
  TRACK 08 AUDIO
    TITLE "16:cjc020_6837"
    INDEX 01 00:04:74
  TRACK 09 AUDIO
    TITLE "0:"
    INDEX 01 00:06:08
  TRACK 10 AUDIO
    TITLE "17:cjc020_6838"
    INDEX 01 00:06:67
  TRACK 11 AUDIO
    TITLE "0:"
    INDEX 01 00:08:17
  TRACK 12 AUDIO
    TITLE "16:cjc020_6839"
    INDEX 01 00:08:26
  TRACK 13 AUDIO
    TITLE "0:"
    INDEX 01 00:09:22
  TRACK 14 AUDIO
    TITLE "17:cjc020_6840"
    INDEX 01 00:10:04
  TRACK 15 AUDIO
    TITLE "0:"
    INDEX 01 00:13:06
  TRACK 16 AUDIO
    TITLE "16:cjc020_6841"
    INDEX 01 00:13:71
  TRACK 17 AUDIO
    TITLE "0:"
    INDEX 01 00:14:70
  TRACK 18 AUDIO
    TITLE "17:cjc020_6842"
    INDEX 01 00:15:54
  TRACK 19 AUDIO
    TITLE "0:"
    INDEX 01 00:17:10
  TRACK 20 AUDIO
    TITLE "16:cjc020_6843"
    INDEX 01 00:17:14
  TRACK 21 AUDIO
    TITLE "0:"
    INDEX 01 00:18:05
  TRACK 22 AUDIO
    TITLE "17:cjc020_6844"
    INDEX 01 00:18:66
  TRACK 23 AUDIO
    TITLE "0:"
    INDEX 01 00:20:12
  TRACK 24 AUDIO
    TITLE "16:cjc020_6845"
    INDEX 01 00:20:18
  TRACK 25 AUDIO
    TITLE "0:"
    INDEX 01 00:21:23
  TRACK 26 AUDIO
    TITLE "17:cjc020_6846"
    INDEX 01 00:22:07
  TRACK 27 AUDIO
    TITLE "0:"
    INDEX 01 00:23:48
  TRACK 28 AUDIO
    TITLE "16:cjc020_6847"
    INDEX 01 00:23:55
  TRACK 29 AUDIO
    TITLE "0:"
    INDEX 01 00:24:65
  TRACK 30 AUDIO
    TITLE "17:cjc020_6848"
    INDEX 01 00:25:52
  TRACK 31 AUDIO
    TITLE "0:"
    INDEX 01 00:27:00
  TRACK 32 AUDIO
    TITLE "16:cjc020_6849"
    INDEX 01 00:27:06
  TRACK 33 AUDIO
    TITLE "0:"
    INDEX 01 00:28:29
  TRACK 34 AUDIO
    TITLE "17:cjc020_6850"
    INDEX 01 00:29:13
  TRACK 35 AUDIO
    TITLE "0:"
    INDEX 01 00:30:46
  TRACK 36 AUDIO
    TITLE "16:cjc020_6851"
    INDEX 01 00:30:61
  TRACK 37 AUDIO
    TITLE "0:"
    INDEX 01 00:31:67
  TRACK 38 AUDIO
    TITLE "17:cjc020_6852"
    INDEX 01 00:32:50
  TRACK 39 AUDIO
    TITLE "0:"
    INDEX 01 00:33:73
  TRACK 40 AUDIO
    TITLE "16:cjc020_6853"
    INDEX 01 00:34:00
  TRACK 41 AUDIO
    TITLE "0:"
    INDEX 01 00:35:00
  TRACK 42 AUDIO
    TITLE "17:cjc020_6854"
    INDEX 01 00:35:59
  TRACK 43 AUDIO
    TITLE "0:"
    INDEX 01 00:37:65
  TRACK 44 AUDIO
    TITLE "16:cjc020_6855"
    INDEX 01 00:37:73
  TRACK 45 AUDIO
    TITLE "0:"
    INDEX 01 00:39:17
  TRACK 46 AUDIO
    TITLE "17:cjc020_6856"
    INDEX 01 00:39:72
  TRACK 47 AUDIO
    TITLE "0:"
    INDEX 01 00:41:10
  TRACK 48 AUDIO
    TITLE "16:cjc020_6857"
    INDEX 01 00:41:14
  TRACK 49 AUDIO
    TITLE "0:"
    INDEX 01 00:42:10
  TRACK 50 AUDIO
    TITLE "17:cjc020_6858"
    INDEX 01 00:42:68
  TRACK 51 AUDIO
    TITLE "0:"
    INDEX 01 00:43:72
  TRACK 52 AUDIO
    TITLE "16:cjc020_6859"
    INDEX 01 00:44:03
  TRACK 53 AUDIO
    TITLE "0:"
    INDEX 01 00:45:28
  TRACK 54 AUDIO
    TITLE "17:cjc020_6860"
    INDEX 01 00:46:07
  TRACK 55 AUDIO
    TITLE "0:"
    INDEX 01 00:47:11
  TRACK 56 AUDIO
    TITLE "16:cjc020_6861"
    INDEX 01 00:47:15
  TRACK 57 AUDIO
    TITLE "0:"
    INDEX 01 00:48:18
  TRACK 58 AUDIO
    TITLE "17:cjc020_6862"
    INDEX 01 00:49:04
  TRACK 59 AUDIO
    TITLE "0:"
    INDEX 01 00:50:07
  TRACK 60 AUDIO
    TITLE "16:cjc020_6863"
    INDEX 01 00:50:13
  TRACK 61 AUDIO
    TITLE "0:"
    INDEX 01 00:51:07
